# xmcd CD database file
#
# Track frame offsets:
#	150
#	28164
#	49810
#	75252
#	92564
#	109156
#	130563
#	159680
#
# Disc length: 2452 seconds
#
# Revision: 0
# Processed by: cddbd v1.5.2PL0 Copyright (c) Steve Scherf et al.
# Submitted via: CDex 1.51
#
DISCID=58099208
DTITLE=Silicon Brain - Taurus - The healing power of
DYEAR=2007
DGENRE=New Age
TTITLE0=The Secret of Taurus
TTITLE1=Silence
TTITLE2=Rising Sun
TTITLE3=Free World
TTITLE4=Transparent Stars
TTITLE5=Yellow Satisfaction
TTITLE6=Hamilton Eleven
TTITLE7=Endless Field
EXTD=YEAR: 2007
EXTT0=
EXTT1=
EXTT2=
EXTT3=
EXTT4=
EXTT5=
EXTT6=
EXTT7=
PLAYORDER=
